# xmcd
#
# Track frame offsets:
#	150
#	12373
#	24581
#	34609
#	49289
#	59674
#	70637
#	82515
#	93966
#	105599
#	118474
#	129106
#
# Disc length: 1874 seconds
#
# Revision: 0
# Processed by: cddbd v1.5.2PL0 Copyright (c) Steve Scherf et al.
# Submitted via: dBpowerAMP V4.0
#
DISCID=9207500c
DTITLE=Micah Bost - Arizona's Best
DYEAR=2009
DGENRE=Bluegrass
TTITLE0=Dixie Hoedown
TTITLE1=Ragtime Annie
TTITLE2=Billy in the Low Ground
TTITLE3=Lauderback Waltz
TTITLE4=Red Haired Boy
TTITLE5=Jericho Road
TTITLE6=Bill Chealhum
TTITLE7=St. Anne's Reel
TTITLE8=Peek-a-Boo Waltz
TTITLE9=Big Sandy
TTITLE10=Cherokee Shuffle
TTITLE11=Arkansas Traveler
EXTD=Bluegrass
EXTT0=
EXTT1=
EXTT2=
EXTT3=
EXTT4=
EXTT5=
EXTT6=
EXTT7=
EXTT8=
EXTT9=
EXTT10=
EXTT11=
PLAYORDER=
